<svg preserveAspectRatio="none" width="100%" height="100%" overflow="visible" style="display: block;" viewBox="0 0 672.535 862.857" fill="none" xmlns="http://www.w3.org/2000/svg">
<g id="Rectangle 2">
<g filter="url(#filter0_ii_0_55)">
<path fill-rule="evenodd" clip-rule="evenodd" d="M29.9296 5.28169H642.606C656.218 5.28169 667.253 16.3171 667.253 29.9298V832.928C667.253 846.54 656.218 857.576 642.606 857.576H29.9296C16.3169 857.576 5.28169 846.54 5.28169 832.928V29.9298C5.28169 16.3171 16.3169 5.28169 29.9296 5.28169Z" fill="url(#paint0_linear_0_55)"/>
</g>
<path d="M642.606 2.64107C657.677 2.64123 669.894 14.8591 669.894 29.9301V832.927C669.894 847.998 657.677 860.216 642.606 860.216H29.9292C14.8582 860.216 2.64107 847.998 2.64107 832.927V29.9301C2.64107 14.8592 14.8582 2.6413 29.9292 2.64107H642.606Z" stroke="url(#paint1_linear_0_55)" stroke-width="5.28169"/>
</g>
<defs>
<filter id="filter0_ii_0_55" x="-6" y="0" width="684.535" height="862.857" filterUnits="userSpaceOnUse" color-interpolation-filters="sRGB">
<feFlood flood-opacity="0" result="BackgroundImageFix"/>
<feBlend mode="normal" in="SourceGraphic" in2="BackgroundImageFix" result="shape"/>
<feColorMatrix in="SourceAlpha" type="matrix" values="0 0 0 0 0 0 0 0 0 0 0 0 0 0 0 0 0 0 127 0" result="hardAlpha"/>
<feOffset dx="6"/>
<feGaussianBlur stdDeviation="3"/>
<feComposite in2="hardAlpha" operator="arithmetic" k2="-1" k3="1"/>
<feColorMatrix type="matrix" values="0 0 0 0 1 0 0 0 0 0.996078 0 0 0 0 0.956863 0 0 0 0.63 0"/>
<feBlend mode="screen" in2="shape" result="effect1_innerShadow_0_55"/>
<feColorMatrix in="SourceAlpha" type="matrix" values="0 0 0 0 0 0 0 0 0 0 0 0 0 0 0 0 0 0 127 0" result="hardAlpha"/>
<feOffset dx="-6"/>
<feGaussianBlur stdDeviation="3"/>
<feComposite in2="hardAlpha" operator="arithmetic" k2="-1" k3="1"/>
<feColorMatrix type="matrix" values="0 0 0 0 0.286275 0 0 0 0 0 0 0 0 0 0.188235 0 0 0 0.18 0"/>
<feBlend mode="multiply" in2="effect1_innerShadow_0_55" result="effect2_innerShadow_0_55"/>
</filter>
<linearGradient id="paint0_linear_0_55" x1="336.268" y1="857.576" x2="336.268" y2="5.28169" gradientUnits="userSpaceOnUse">
<stop stop-color="#FFE3F2"/>
<stop offset="1" stop-color="white"/>
</linearGradient>
<linearGradient id="paint1_linear_0_55" x1="336.268" y1="857.576" x2="336.268" y2="5.28169" gradientUnits="userSpaceOnUse">
<stop stop-color="#E8C5D8"/>
<stop offset="1" stop-color="#D76AA5"/>
</linearGradient>
</defs>
</svg>
