<svg preserveAspectRatio="none" width="100%" height="100%" overflow="visible" style="display: block;" viewBox="0 0 1429.58 5811.48" fill="none" xmlns="http://www.w3.org/2000/svg">
<g id="time">
<g id="Clipping - Rectangle 1">
<path id="Rectangle 1" fill-rule="evenodd" clip-rule="evenodd" d="M73.9436 5797.39H1426.06C1428 5797.39 1429.58 5798.97 1429.58 5800.91V5800.92C1429.58 5802.86 1428 5804.44 1426.06 5804.44H73.9436C71.999 5804.44 70.4225 5802.86 70.4225 5800.92V5800.91C70.4225 5798.97 71.999 5797.39 73.9436 5797.39Z" fill="white"/>
<mask id="mask0_0_4" style="mask-type:alpha" maskUnits="userSpaceOnUse" x="70" y="5797" width="1360" height="8">
<path id="Mask - Rectangle 1" fill-rule="evenodd" clip-rule="evenodd" d="M73.9436 5797.39H1426.06C1428 5797.39 1429.58 5798.97 1429.58 5800.91V5800.92C1429.58 5802.86 1428 5804.44 1426.06 5804.44H73.9436C71.999 5804.44 70.4225 5802.86 70.4225 5800.92V5800.91C70.4225 5798.97 71.999 5797.39 73.9436 5797.39Z" fill="white"/>
</mask>
<g mask="url(#mask0_0_4)">
<path id="Rectangle 1 copy" fill-rule="evenodd" clip-rule="evenodd" d="M77.4365 5790.35H1422.51C1426.4 5790.35 1429.55 5793.5 1429.55 5797.39V5797.39C1429.55 5801.28 1426.4 5804.44 1422.51 5804.44H77.4365C73.5472 5804.44 70.3943 5801.28 70.3943 5797.39V5797.39C70.3943 5793.5 73.5472 5790.35 77.4365 5790.35Z" fill="#C74C8F"/>
</g>
</g>
<path id="Ellipse 1" fill-rule="evenodd" clip-rule="evenodd" d="M1416.87 5787.53C1423.49 5787.53 1428.85 5792.89 1428.85 5799.5C1428.85 5806.12 1423.49 5811.48 1416.87 5811.48C1410.26 5811.48 1404.9 5806.12 1404.9 5799.5C1404.9 5792.89 1410.26 5787.53 1416.87 5787.53Z" fill="#C74C8F"/>
</g>
</svg>
